<?xml version="1.0" encoding="UTF-8"?>
<svg xmlns="http://www.w3.org/2000/svg" xmlns:xlink="http://www.w3.org/1999/xlink" width="95px" height="95px" viewBox="0 0 95 95" version="1.1">
<g id="surface1">
<path style=" stroke:none;fill-rule:nonzero;fill:rgb(0%,0%,0%);fill-opacity:1;" d="M 21.164062 41.171875 C 21.972656 41.9375 22.210938 42.867188 22.214844 43.894531 C 22.21875 44.8125 22.617188 45.085938 23.496094 44.808594 C 23.515625 44.800781 23.539062 44.796875 23.554688 44.785156 C 24.679688 44.101562 25.925781 43.707031 27.148438 43.25 C 27.742188 43.03125 28.136719 42.515625 28.253906 41.835938 C 28.367188 41.179688 28.574219 40.546875 28.816406 39.921875 C 29.902344 37.09375 28.53125 33.429688 25.867188 32.007812 C 24.953125 31.519531 23.511719 31.785156 22.617188 32.558594 C 22.316406 32.816406 22.164062 33.25 21.695312 33.351562 C 21.476562 33.074219 21.625 32.796875 21.699219 32.554688 C 22.835938 28.835938 24.328125 25.277344 26.527344 22.046875 C 27.144531 21.140625 27.820312 20.277344 28.574219 19.476562 C 29.339844 18.660156 30.039062 18.515625 31.066406 18.988281 C 32.203125 19.511719 33.097656 20.359375 33.941406 21.25 C 36.261719 23.683594 38.261719 26.378906 40.257812 29.074219 C 40.59375 29.527344 40.898438 29.738281 41.488281 29.578125 C 42.953125 29.167969 44.300781 29.144531 45.476562 30.4375 C 46.195312 31.230469 47.222656 31.636719 48.335938 31.796875 C 49.117188 31.90625 49.679688 31.675781 50.152344 31.101562 C 50.574219 30.585938 50.996094 30.074219 51.425781 29.566406 C 51.683594 29.257812 52.046875 29.183594 52.421875 29.222656 C 53.402344 29.328125 54.394531 29.40625 55.359375 29.59375 C 55.9375 29.707031 56.253906 29.550781 56.59375 29.089844 C 58.558594 26.453125 60.507812 23.800781 62.78125 21.410156 C 63.625 20.519531 64.503906 19.667969 65.613281 19.09375 C 66.753906 18.496094 67.445312 18.589844 68.316406 19.523438 C 70.515625 21.882812 72.070312 24.644531 73.34375 27.582031 C 75.742188 33.132812 77.019531 38.972656 77.851562 44.929688 C 78.257812 47.867188 78.480469 50.824219 78.601562 53.785156 C 78.652344 55.03125 78.507812 56.273438 78.316406 57.507812 C 78.277344 57.738281 78.25 57.972656 78.210938 58.234375 C 78.742188 58.359375 79.21875 58.183594 79.691406 58.121094 C 80.632812 58.003906 81.347656 58.464844 81.503906 59.347656 C 81.648438 60.152344 81.09375 60.890625 80.203125 61.042969 C 79.527344 61.160156 78.847656 61.261719 78.164062 61.339844 C 77.050781 61.464844 76.953125 61.539062 76.613281 62.769531 C 77.542969 63.03125 78.507812 63.050781 79.453125 63.195312 C 80.421875 63.34375 81.007812 63.980469 80.902344 64.816406 C 80.789062 65.738281 80.046875 66.265625 79.039062 66.136719 C 77.761719 65.96875 76.480469 65.824219 75.203125 65.636719 C 74.574219 65.542969 74.40625 65.984375 74.140625 66.398438 C 74.625 66.789062 75.222656 66.871094 75.730469 67.136719 C 76.628906 67.597656 76.972656 68.324219 76.628906 69.125 C 76.292969 69.910156 75.46875 70.21875 74.566406 69.871094 C 73.824219 69.589844 73.085938 69.296875 72.359375 68.972656 C 71.953125 68.792969 71.644531 68.835938 71.300781 69.125 C 67.78125 72.085938 63.71875 73.976562 59.304688 75.15625 C 55.289062 76.230469 51.195312 76.699219 47.050781 76.539062 C 40.535156 76.285156 34.332031 74.835938 28.691406 71.40625 C 27.605469 70.742188 26.582031 69.996094 25.621094 69.164062 C 25.230469 68.828125 24.886719 68.800781 24.449219 68.992188 C 23.761719 69.289062 23.066406 69.578125 22.359375 69.84375 C 21.378906 70.210938 20.527344 69.882812 20.207031 69.046875 C 19.898438 68.242188 20.304688 67.503906 21.269531 67.0625 C 21.730469 66.851562 22.261719 66.78125 22.660156 66.394531 C 22.453125 65.828125 22.148438 65.570312 21.492188 65.671875 C 20.222656 65.878906 18.9375 66.003906 17.652344 66.136719 C 16.78125 66.226562 16.097656 65.699219 15.984375 64.886719 C 15.863281 64.042969 16.390625 63.363281 17.289062 63.207031 C 18.234375 63.042969 19.210938 63.035156 20.140625 62.773438 C 20.125 61.851562 19.769531 61.457031 18.910156 61.355469 C 18.183594 61.269531 17.460938 61.179688 16.738281 61.070312 C 15.8125 60.929688 15.230469 60.199219 15.351562 59.363281 C 15.480469 58.492188 16.253906 57.980469 17.214844 58.121094 C 18.753906 58.34375 18.613281 58.171875 18.46875 57.027344 C 18.015625 53.414062 18.417969 49.824219 18.867188 46.234375 C 19.125 44.167969 19.394531 42.109375 19.851562 40.074219 C 19.910156 39.804688 19.984375 39.542969 20.222656 39.257812 C 20.671875 39.863281 20.640625 40.636719 21.164062 41.171875 Z M 21.164062 41.171875 "/>
</g>
</svg>
